<?xml version="1.0" encoding="UTF-8"?>
<svg id="Layer_1" xmlns="http://www.w3.org/2000/svg" version="1.1" viewBox="0 0 87.9 95.4">
  <!-- Generator: Adobe Illustrator 29.0.0, SVG Export Plug-In . SVG Version: 2.1.0 Build 186)  -->
  <defs>
    <style>
      .st0 {
        fill: #e8e8e8;
      }
    </style>
  </defs>
  <path class="st0" d="M56.1,27.5h8c1.1,0,2-.9,2-2V9.5c0-1.1-.9-2-2-2h-12c-12.1,0-22,9.9-22,22v10.2h-14c-1.1,0-2,.9-2,2v15.8c0,1.1.9,2,2,2h12.6v30c0,1.1.9,2,2,2h16.7c1.1,0,2-.9,2-2v-30h10.5c.9,0,1.7-.6,1.9-1.5l4.2-16c.2-.6,0-1.2-.4-1.7-.4-.5-1-.8-1.6-.8h-14v-6c0-3.3,2.7-6,6-6h0ZM48.1,43.5h13.4l-3.1,12h-11c-1.1,0-2,.9-2,2v30h-12.7v-30c0-1.1-.9-2-2-2h-12.6v-11.8h14c1.1,0,2-.9,2-2v-12.2c0-9.9,8.1-18,18-18h10v12h-6c-5.5,0-10,4.5-10,10v8c0,1.1.9,2,2,2h0Z"/>
</svg>