<?xml version="1.0" encoding="UTF-8"?>
<svg id="Layer_1" xmlns="http://www.w3.org/2000/svg" version="1.1" viewBox="0 0 110 100.9">
  <!-- Generator: Adobe Illustrator 29.0.0, SVG Export Plug-In . SVG Version: 2.1.0 Build 186)  -->
  <defs>
    <style>
      .st0 {
        fill: #f9f9f9;
      }
    </style>
  </defs>
  <path class="st0" d="M71.7,7.9h-33.3c-13.8,0-25,11.2-25,25v33.3c0,13.8,11.2,25,25,25h33.3c13.8,0,25-11.2,25-25v-33.3c0-13.8-11.2-25-25-25h0ZM88.3,66.2c0,9.2-7.5,16.7-16.7,16.7h-33.3c-9.2,0-16.7-7.5-16.7-16.7v-33.3c0-9.2,7.5-16.7,16.7-16.7h33.3c9.2,0,16.7,7.5,16.7,16.7v33.3ZM55,28.7c-11.5,0-20.8,9.3-20.8,20.8s9.3,20.8,20.8,20.8,20.8-9.3,20.8-20.8-9.3-20.8-20.8-20.8ZM55,62.1c-6.9,0-12.5-5.6-12.5-12.5s5.6-12.5,12.5-12.5,12.5,5.6,12.5,12.5-5.6,12.5-12.5,12.5ZM78.8,25.8c.7.8,1.2,1.9,1.2,3s-.5,2.2-1.2,3c-.8.8-1.9,1.2-3,1.2s-2.2-.5-3-1.2c-.8-.8-1.2-1.9-1.2-3s.5-2.2,1.2-3c1.6-1.5,4.3-1.5,5.9,0h0Z"/>
</svg>